<svg width="133" height="14" viewBox="0 0 133 14" fill="none" xmlns="http://www.w3.org/2000/svg">
<path d="M5.202 1.786L3.87 2.308V11.47L5.202 12.01V13H0.99V12.01L2.322 11.47V2.308L0.99 1.786V0.76H5.202V1.786ZM19.9215 0.76V1.786L18.5895 2.308V13H16.7535L9.8235 2.686V11.47L11.2455 12.01V13H7.1775V12.01L8.5095 11.47V2.308L7.1775 1.786V0.76H10.3455L17.2575 11.056V2.308L15.8355 1.786V0.76H19.9215ZM27.5826 1.876C26.5026 1.876 25.6386 2.038 24.9906 2.362C24.3426 2.674 23.8626 3.19 23.5506 3.91C23.2506 4.63 23.1006 5.602 23.1006 6.826C23.1006 8.074 23.2506 9.07 23.5506 9.814C23.8626 10.546 24.3366 11.074 24.9726 11.398C25.6086 11.722 26.4426 11.884 27.4746 11.884C28.1346 11.884 28.8126 11.83 29.5086 11.722C30.2166 11.602 30.8646 11.416 31.4526 11.164V12.496C30.9486 12.724 30.3426 12.898 29.6346 13.018C28.9266 13.15 28.2066 13.216 27.4746 13.216C23.4786 13.216 21.4806 11.104 21.4806 6.88C21.4806 4.684 22.0086 3.082 23.0646 2.074C24.1206 1.054 25.6746 0.543999 27.7266 0.543999C28.9266 0.543999 30.1686 0.687999 31.4526 0.975999V4.162H30.1926L29.8866 2.11C29.1426 1.954 28.3746 1.876 27.5826 1.876ZM45.063 12.01V13H42.993L39.609 7.924H36.495V11.452L37.827 12.01V13H33.615V12.01L34.947 11.452V2.308L33.615 1.786V0.76H40.797C41.961 0.76 42.843 1.066 43.443 1.678C44.043 2.278 44.343 3.166 44.343 4.342C44.343 5.386 44.091 6.208 43.587 6.808C43.095 7.396 42.369 7.75 41.409 7.87L43.839 11.47L45.063 12.01ZM36.495 6.628H40.473C41.277 6.628 41.853 6.454 42.201 6.106C42.549 5.746 42.723 5.158 42.723 4.342C42.723 3.538 42.555 2.956 42.219 2.596C41.895 2.236 41.373 2.056 40.653 2.056H36.495V6.628ZM57.2407 3.946H56.1787L55.7107 2.056H49.5907V6.196H53.1727L53.4427 4.81H54.4327V8.878H53.4427L53.1727 7.492H49.5907V11.704H55.7107L56.1787 9.634H57.2407V13H46.7107V12.01L48.0427 11.47V2.308L46.7107 1.786V0.76H57.2407V3.946ZM65.6356 0.76C67.2316 0.76 68.5456 1.222 69.5776 2.146C70.6096 3.07 71.1256 4.636 71.1256 6.844C71.1256 9.088 70.6096 10.678 69.5776 11.614C68.5456 12.538 67.2316 13 65.6356 13H59.1736V12.01L60.7936 11.452V2.308L59.1736 1.786V0.76H65.6356ZM62.3416 2.056V11.704H65.2576C66.1576 11.704 66.9136 11.572 67.5256 11.308C68.1376 11.032 68.6176 10.54 68.9656 9.832C69.3256 9.112 69.5056 8.116 69.5056 6.844C69.5056 5.596 69.3256 4.624 68.9656 3.928C68.6176 3.22 68.1376 2.734 67.5256 2.47C66.9136 2.194 66.1576 2.056 65.2576 2.056H62.3416ZM77.079 1.786L75.747 2.308V11.47L77.079 12.01V13H72.867V12.01L74.199 11.47V2.308L72.867 1.786V0.76H77.079V1.786ZM79.0545 12.01L80.3865 11.452V2.308L79.0545 1.786V0.76H86.3805C87.4725 0.76 88.2765 1.024 88.7925 1.552C89.3205 2.068 89.5845 2.8 89.5845 3.748C89.5845 4.576 89.4105 5.248 89.0625 5.764C88.7265 6.268 88.2405 6.604 87.6045 6.772C88.2765 6.88 88.8045 7.186 89.1885 7.69C89.5725 8.182 89.7645 8.896 89.7645 9.832C89.7645 10.876 89.5005 11.668 88.9725 12.208C88.4445 12.736 87.6645 13 86.6325 13H79.0545V12.01ZM86.0385 6.196C86.7345 6.196 87.2265 6.04 87.5145 5.728C87.8145 5.404 87.9645 4.87 87.9645 4.126C87.9645 3.394 87.8265 2.866 87.5505 2.542C87.2745 2.218 86.8185 2.056 86.1825 2.056H81.9345V6.196H86.0385ZM86.3265 11.704C86.9625 11.704 87.4245 11.542 87.7125 11.218C88.0005 10.882 88.1445 10.342 88.1445 9.598C88.1445 8.842 87.9945 8.302 87.6945 7.978C87.3945 7.654 86.8905 7.492 86.1825 7.492H81.9345V11.704H86.3265ZM96.0458 1.786L94.7138 2.308V11.704H100.528L100.996 9.634H102.058V13H91.8338V12.01L93.1658 11.47V2.308L91.8338 1.786V0.76H96.0458V1.786ZM113.93 3.946H112.868L112.4 2.056H106.28V6.196H109.862L110.132 4.81H111.122V8.878H110.132L109.862 7.492H106.28V11.704H112.4L112.868 9.634H113.93V13H103.4V12.01L104.732 11.47V2.308L103.4 1.786V0.76H113.93V3.946ZM120.826 8.356H115.408V6.88H120.826V8.356ZM130.292 6.826C130.988 7.174 131.468 7.594 131.732 8.086C131.996 8.578 132.128 9.136 132.128 9.76C132.128 12.088 130.622 13.252 127.61 13.252C126.062 13.252 124.874 12.952 124.046 12.352C123.218 11.752 122.804 10.876 122.804 9.724C122.804 8.368 123.416 7.324 124.64 6.592C124.124 6.28 123.74 5.89 123.488 5.422C123.236 4.954 123.11 4.396 123.11 3.748C123.11 1.588 124.508 0.508 127.304 0.508C128.84 0.508 129.974 0.814 130.706 1.426C131.45 2.038 131.822 2.854 131.822 3.874C131.822 4.498 131.69 5.062 131.426 5.566C131.162 6.058 130.784 6.478 130.292 6.826ZM127.34 1.804C126.392 1.804 125.714 1.948 125.306 2.236C124.898 2.512 124.694 2.98 124.694 3.64C124.694 4.216 124.832 4.66 125.108 4.972C125.384 5.272 125.834 5.518 126.458 5.71C126.926 5.842 127.478 5.986 128.114 6.142C128.378 6.202 128.672 6.274 128.996 6.358L129.176 6.412C129.572 6.064 129.848 5.704 130.004 5.332C130.16 4.948 130.238 4.522 130.238 4.054C130.238 3.238 130.016 2.662 129.572 2.326C129.128 1.978 128.384 1.804 127.34 1.804ZM127.592 11.956C128.612 11.956 129.356 11.794 129.824 11.47C130.304 11.134 130.544 10.618 130.544 9.922C130.544 8.926 130.04 8.272 129.032 7.96C128.768 7.876 128.198 7.732 127.322 7.528L126.458 7.312C126.182 7.24 125.936 7.162 125.72 7.078C125.252 7.414 124.91 7.786 124.694 8.194C124.49 8.602 124.388 9.064 124.388 9.58C124.388 10.384 124.646 10.984 125.162 11.38C125.678 11.764 126.488 11.956 127.592 11.956Z" fill="white"/>
</svg>
