<svg width="139" height="87" viewBox="0 0 139 87" fill="none" xmlns="http://www.w3.org/2000/svg">
<path d="M1 35.4255C1 38.0396 2.41862 40.586 5.25587 43.0649C9.08284 46.3099 14.2295 47.9549 20.6957 48V42.186C16.143 42.186 12.8438 40.8114 10.7984 38.0621C10.0726 37.0706 9.70968 36.1917 9.70968 35.4255V12.6428C9.70968 11.0653 10.6994 9.55549 12.6789 8.11326C14.8563 6.62596 17.5286 5.85977 20.6957 5.8147V0.000704215C13.1738 -0.0443655 7.56525 2.07391 3.87023 6.35554C1.95674 8.56396 1 10.6597 1 12.6428V35.4255ZM25.5455 48C30.824 48 35.3438 46.6254 39.1048 43.8761C42.4699 41.3973 44.1525 38.5579 44.1525 35.3579L35.9377 34.0058C35.9377 34.5016 35.9047 34.8622 35.8387 35.0875C35.7067 36.1241 35.5088 36.8903 35.2449 37.3861C34.651 38.6931 33.5293 39.7522 31.8798 40.5635C30.2962 41.3747 28.8446 41.848 27.5249 41.9832L25.5455 42.186V48ZM25.5455 5.8147C25.5455 5.8147 26.5022 5.97245 28.4157 6.28794C31.7148 7.2344 33.9912 8.81184 35.2449 11.0203C35.5088 11.5611 35.7067 12.2822 35.8387 13.1836V14.2653L44.1525 12.778C44.1525 9.35268 42.074 6.28794 37.9172 3.58375C34.0902 1.19505 29.9663 0.000704215 25.5455 0.000704215V5.8147Z" fill="white"/>
<path d="M49.695 36.9804L57.6129 35.0875C58.0088 36.9804 59.0645 38.5354 60.7801 39.7522C62.5616 40.9691 64.2441 41.7128 65.8277 41.9832L68.1041 42.3888V47.8648C62.2977 47.8648 57.415 46.1747 53.456 42.7944C51.0147 40.6762 49.761 38.7382 49.695 36.9804ZM50.4868 13.116C50.4868 8.24847 53.555 4.59782 59.6913 2.16405C62.7265 0.947169 65.5308 0.338727 68.1041 0.338727V5.88231C65.7947 6.06259 63.6173 6.89638 61.5718 8.38368C59.7243 9.78084 58.8006 11.3808 58.8006 13.1836C58.8006 15.9329 61.7038 18.0061 67.5103 19.4032C68.9619 19.7187 71.1723 20.1469 74.1415 20.6877C77.2427 21.2736 79.4201 21.7243 80.6738 22.0398C86.6122 23.7074 90.4062 25.9834 92.0557 28.8679C92.9135 30.3101 93.3424 31.9326 93.3424 33.7354C93.3424 37.6565 91.132 41.0593 86.7111 43.9437C82.6862 46.5578 78.1334 47.8648 73.0528 47.8648V42.3888C75.7581 42.2987 78.3644 41.4198 80.8717 39.7522C83.379 37.9945 84.6657 35.9889 84.7317 33.7354C84.7317 30.5805 81.5315 28.282 75.1312 26.8397C73.7456 26.5243 71.6342 26.1412 68.7969 25.6905C65.7617 25.1947 63.7163 24.7891 62.6606 24.4736C57.0521 22.8961 53.456 20.8229 51.8724 18.254C50.9487 16.7667 50.4868 15.054 50.4868 13.116ZM73.0528 5.88231V0.338727C78.7933 0.338727 83.577 2.07391 87.404 5.54428C89.3175 7.30201 90.3732 8.87945 90.5711 10.2766L82.5543 12.1019C81.6305 8.94705 78.9912 6.94145 74.6364 6.08512C73.5806 5.94991 73.0528 5.88231 73.0528 5.88231Z" fill="white"/>
<path d="M99.9736 47.662V0.338727H136V6.15273H108.584V21.161H126.696V27.0426H108.584V41.848H136V47.662H99.9736Z" fill="white"/>
<path d="M0 86.7634V59.1978H14.674V62.5893H3.50725V71.344H10.8846V74.7749H3.50725V86.7634H0Z" fill="white"/>
<path d="M17.6975 86.8028V59.1978H21.2048V86.8028H17.6975Z" fill="white"/>
<path d="M24.4701 79.2311V66.1385C24.5776 64.5348 25.263 63.0099 26.5261 61.5639C28.1118 59.855 30.0871 59.0006 32.4521 59.0006V62.3921C30.8396 62.4184 29.6033 63.1019 28.7433 64.4427C28.2596 65.2052 28.0177 65.9807 28.0177 66.7694V79.2311C28.0177 81.0189 28.9583 82.3334 30.8396 83.1747C31.4846 83.4639 32.0221 83.6085 32.4521 83.6085V87C30.8396 87 29.254 86.4479 27.6952 85.3437C25.572 83.8188 24.497 81.7813 24.4701 79.2311ZM34.4275 87V83.6085C35.2338 83.6085 36.1072 83.1616 37.0479 82.2677C37.9616 81.3475 38.4319 80.3616 38.4588 79.31V76.0763H34.4275V72.882H42.0064V79.8621C42.0064 81.4658 41.1732 83.0564 39.507 84.6339C37.8138 86.185 36.1206 86.9737 34.4275 87ZM34.4275 62.3921V59.0006C36.47 58.9743 38.2976 59.8156 39.9101 61.5245C41.3076 63.0493 42.0064 64.6925 42.0064 66.454L38.5798 67.6765C38.5798 67.6502 38.5798 67.6107 38.5798 67.5582C38.5798 67.5056 38.5798 67.453 38.5798 67.4004C38.5798 67.3215 38.5663 67.2427 38.5394 67.1638C38.5394 67.0849 38.5394 67.0061 38.5394 66.9272C38.5394 66.8483 38.5394 66.7826 38.5394 66.73V66.6511C38.4051 64.8108 37.5182 63.5094 35.8788 62.747C35.3681 62.5367 34.8844 62.4184 34.4275 62.3921Z" fill="white"/>
<path d="M45.1105 86.8028V59.1978H48.6177V71.2257H52.2459V74.5777H48.6177V86.8028H45.1105ZM54.2616 74.5777V71.2257H57.8495V59.1978H61.397V86.8028H57.8495V74.5777H54.2616Z" fill="white"/>
<path d="M63.7352 62.5498V59.1978H81.1908V62.5498H74.2166V86.8028H70.6691V62.5498H63.7352Z" fill="white"/>
<path d="M83.529 86.8028V59.1978H98.203V62.5893H87.0363V71.344H94.4136V74.7749H87.0363V83.4113H98.203V86.8028H83.529Z" fill="white"/>
<path d="M101.468 86.8028V59.1978H104.976V86.8028H101.468ZM106.991 74.8538V71.7384H110.66C113.509 71.6858 114.946 70.1346 114.973 67.0849C114.92 63.9564 113.294 62.3789 110.095 62.3526H106.991V59.1978H110.74C114.637 59.3292 117.043 60.9198 117.956 63.9695C118.225 64.8371 118.36 65.7836 118.36 66.8089C118.333 69.8586 117.406 72.0013 115.578 73.2369C117.137 74.0519 118.077 75.5373 118.4 77.6932C118.427 77.8772 118.454 78.0612 118.481 78.2453L119.166 86.8028H115.86L115.256 79.7832C115.041 77.5223 114.449 76.0763 113.482 75.4453C112.837 75.0247 111.963 74.8275 110.861 74.8538H106.991Z" fill="white"/>
<path d="M121.222 80.572L124.447 79.4678C124.608 80.572 125.038 81.479 125.737 82.1888C126.463 82.8987 127.148 83.3325 127.793 83.4902L128.72 83.7268V86.9211C126.355 86.9211 124.366 85.9352 122.754 83.9634C121.759 82.7278 121.249 81.5973 121.222 80.572ZM121.544 66.6511C121.544 63.8118 122.794 61.6822 125.294 60.2625C126.53 59.5527 127.672 59.1978 128.72 59.1978V62.4315C127.779 62.5367 126.893 63.023 126.059 63.8906C125.307 64.7056 124.931 65.639 124.931 66.6906C124.931 68.2943 126.113 69.5037 128.478 70.3187C129.07 70.5027 129.97 70.7525 131.179 71.0679C132.442 71.4097 133.329 71.6726 133.84 71.8567C136.259 72.8294 137.804 74.1571 138.476 75.8397C138.825 76.681 139 77.6274 139 78.679C139 80.9663 138.1 82.9513 136.299 84.6339C134.66 86.1587 132.805 86.9211 130.736 86.9211V83.7268C131.838 83.6742 132.899 83.1616 133.921 82.1888C134.942 81.1635 135.466 79.9936 135.493 78.679C135.493 76.8387 134.189 75.4979 131.582 74.6566C131.018 74.4726 130.158 74.2491 129.002 73.9862C127.766 73.697 126.933 73.4604 126.503 73.2764C124.218 72.3562 122.754 71.1468 122.109 69.6483C121.732 68.7807 121.544 67.7816 121.544 66.6511ZM130.736 62.4315V59.1978C133.074 59.1978 135.022 60.21 136.581 62.2343C137.361 63.2597 137.791 64.1798 137.871 64.9948L134.606 66.0596C134.23 64.2193 133.155 63.0493 131.381 62.5498C130.951 62.4709 130.736 62.4315 130.736 62.4315Z" fill="white"/>
</svg>
